<svg xmlns="http://www.w3.org/2000/svg" xmlns:xlink="http://www.w3.org/1999/xlink" width="489" height="489" viewBox="0 0 489 489">
  <defs>
    <clipPath id="clip-path">
      <rect id="Rectangle_43" data-name="Rectangle 43" width="339.436" height="238.421" fill="none"/>
    </clipPath>
  </defs>
  <g id="Group_25" data-name="Group 25" transform="translate(-5973 1351)">
    <rect id="Rectangle_42" data-name="Rectangle 42" width="489" height="489" rx="244.5" transform="translate(5973 -1351)" fill="#15b3c3"/>
    <g id="Group_24" data-name="Group 24" transform="translate(6047.782 -1225.71)">
      <g id="Group_23" data-name="Group 23" clip-path="url(#clip-path)">
        <path id="Path_3649" data-name="Path 3649" d="M0,116.938l.427,1.379c-.154-3.443,1.584-5.96,3.983-8.1a11.453,11.453,0,0,1,7.078-2.871c1.4-.09,2.815-.124,4.222-.124q111.377-.009,222.754-.007,29.79,0,59.581-.019a.985.985,0,0,0,.155-.043,2.815,2.815,0,0,0-.3-.451Q284.453,93.265,271,79.836q-28.218-28.129-56.441-56.254a47.687,47.687,0,0,1-3.549-3.82A11.977,11.977,0,0,1,216.021.941a11.034,11.034,0,0,1,3.239-.5L218.143,0h4.642l-1.556.474a8.6,8.6,0,0,1,6.531,2.472c2.625,2.4,5.132,4.937,7.651,7.454Q285.256,60.188,335.1,109.98a13.188,13.188,0,0,1,4.316,8.678,10.98,10.98,0,0,1-1.872,6.9,18.6,18.6,0,0,1-2.256,2.743q-52.958,52.952-105.94,105.88a13.423,13.423,0,0,1-7.233,4.07,12,12,0,0,1-13.772-10.77,11.758,11.758,0,0,1,3.188-9.172q2.4-2.629,4.923-5.148,10.986-10.98,22-21.931,14.676-14.67,29.325-29.369,14.755-14.763,29.526-29.51c.261-.261.514-.531.911-.943-.494-.027-.808-.057-1.121-.059-5.855-.047-11.711-.128-17.567-.128q-99.409-.013-198.816,0-32.943,0-65.885,0a20.018,20.018,0,0,1-6.241-.539,11.822,11.822,0,0,1-7.477-6.675A7.753,7.753,0,0,1,.66,121.69a21.44,21.44,0,0,1-.015-2.168C.4,120.485.2,121.279,0,122.073v-5.135"/>
      </g>
    </g>
  </g>
</svg>
