<?xml version="1.0" encoding="utf-8"?>
<!-- Generator: Adobe Illustrator 27.5.0, SVG Export Plug-In . SVG Version: 6.00 Build 0)  -->
<svg version="1.1" id="Layer_1" xmlns="http://www.w3.org/2000/svg" xmlns:xlink="http://www.w3.org/1999/xlink" x="0px" y="0px"
	 viewBox="0 0 350 60" style="enable-background:new 0 0 350 60;" xml:space="preserve">
<style type="text/css">
	.st0{clip-path:url(#SVGID_00000167383247397998592460000013780586789332747652_);}
</style>
<g>
	<defs>
		<rect id="SVGID_1_" width="350" height="60"/>
	</defs>
	<clipPath id="SVGID_00000117662333225808783570000014368645450469865098_">
		<use xlink:href="#SVGID_1_"  style="overflow:visible;"/>
	</clipPath>
	<g style="clip-path:url(#SVGID_00000117662333225808783570000014368645450469865098_);">
		<path d="M82.4,38.3c1.7,0,3.5-0.4,4.9-1.2V34c-1.3,1-3,1.6-4.8,1.6c-3.7,0-6.2-2.6-6.2-6s2.5-6,6-6c1.7,0,3.5,0.6,4.7,1.5v-3
			c-1.3-0.7-3-1.1-4.7-1.1c-5.3,0-9,3.9-9,8.7C73.4,34.6,77.1,38.3,82.4,38.3z M92.8,38V20.3H90V38H92.8z M97.5,24.6
			c1,0,1.8-0.8,1.8-1.7c0-0.9-0.8-1.7-1.7-1.7c-1,0-1.8,0.8-1.8,1.7C95.8,23.8,96.5,24.6,97.5,24.6z M98.9,38V26.6h-2.8V38H98.9z
			 M105,38v-7.8c0.7-0.7,1.8-1.4,2.9-1.4c0.6,0,1.1,0.2,1.5,0.6c0.3,0.4,0.5,0.9,0.5,1.9V38h2.8v-7.9c0.7-0.7,1.8-1.3,2.9-1.3
			c0.6,0,1.1,0.2,1.5,0.6c0.3,0.4,0.5,0.9,0.5,1.9V38h2.8v-7.2c0-1.6-0.3-2.6-1-3.4c-0.7-0.7-1.7-1.2-3-1.2c-1.5,0-2.9,0.6-4.2,1.8
			c-0.7-1.3-2.1-1.8-3.4-1.8c-1.5,0-2.7,0.6-3.6,1.5v-1.1h-2.8V38C102.4,38,105,38,105,38z M126.6,38.3c1.5,0,2.7-0.5,3.4-1.1
			c0.5,0.7,1.4,1,2.3,1c0.6,0,1-0.1,1.4-0.3v-2.2c-0.2,0.1-0.4,0.2-0.6,0.2c-0.6,0-0.8-0.4-0.8-1.1v-4.4c0-1.4-0.4-2.4-1.2-3
			c-0.9-0.7-2.2-1.1-3.7-1.1c-1.6,0-2.9,0.4-3.9,0.9v2.6c0.9-0.6,2.1-1,3.4-1c0.9,0,1.5,0.2,1.9,0.6c0.4,0.3,0.6,0.9,0.6,1.6v0.7
			c-0.7-0.2-1.4-0.3-2.2-0.3c-1.2,0-2.3,0.2-3.2,0.8c-0.9,0.6-1.5,1.5-1.5,2.8c0,1.1,0.5,2,1.3,2.6
			C124.8,38.1,125.7,38.3,126.6,38.3z M127.3,36.1c-1,0-1.8-0.4-1.8-1.4c0-1.1,1.1-1.5,2.3-1.5c0.6,0,1.3,0.1,1.8,0.2v1.9
			C129,35.8,128.2,36.1,127.3,36.1z M140.5,38.3c0.9,0,1.8-0.2,2.3-0.5v-2.4c-0.5,0.3-1.1,0.5-1.7,0.5c-1.3,0-1.5-1.1-1.5-2.3V29
			h3.2v-2.4h-3.2v-3.5l-2.8,0.5v3h-2V29h2v4.9c0,1.7,0.3,2.6,0.9,3.3C138.4,38,139.5,38.3,140.5,38.3z M150.8,38.3
			c1.5,0,3.1-0.4,4.2-1.1v-2.6c-1.1,0.8-2.5,1.3-3.9,1.3c-1.9,0-3.4-1-3.8-2.9h8.2c0-0.3,0.1-0.8,0.1-1.1c0-3.7-2.5-5.6-5.3-5.6
			c-3.1,0-5.8,2.4-5.8,6C144.4,35.9,147.1,38.3,150.8,38.3z M153,31.1h-5.7c0.3-1.7,1.6-2.5,2.9-2.5C151.5,28.6,152.8,29.4,153,31.1
			z M167,38.3c1.5,0,2.7-0.5,3.4-1.1c0.5,0.7,1.4,1,2.3,1c0.6,0,1-0.1,1.4-0.3v-2.2c-0.2,0.1-0.4,0.2-0.6,0.2
			c-0.6,0-0.8-0.4-0.8-1.1v-4.4c0-1.4-0.4-2.4-1.2-3c-0.9-0.7-2.2-1.1-3.7-1.1c-1.6,0-2.9,0.4-3.9,0.9v2.6c0.9-0.6,2.1-1,3.4-1
			c0.9,0,1.5,0.2,1.9,0.6c0.4,0.3,0.6,0.9,0.6,1.6v0.7c-0.7-0.2-1.4-0.3-2.2-0.3c-1.2,0-2.3,0.2-3.2,0.8s-1.5,1.5-1.5,2.8
			c0,1.1,0.5,2,1.3,2.6C165.1,38.1,166.1,38.3,167,38.3z M167.7,36.1c-1,0-1.8-0.4-1.8-1.4c0-1.1,1.1-1.5,2.3-1.5
			c0.6,0,1.3,0.1,1.8,0.2v1.9C169.4,35.8,168.6,36.1,167.7,36.1z M179.1,38v-7.7c0.7-0.8,1.9-1.4,3-1.4c0.7,0,1.2,0.2,1.5,0.6
			s0.5,0.9,0.5,2v6.6h2.8V31c0-1.7-0.3-2.6-1-3.4s-1.8-1.2-3-1.2c-1.5,0-2.8,0.7-3.8,1.5v-1.3h-2.8V38C176.3,38,179.1,38,179.1,38z
			 M194.9,38.3c1.2,0,2.3-0.4,3-0.9v0.7h2.8V20.3h-2.8v6.5c-0.7-0.3-1.5-0.5-2.5-0.5c-3.5,0-6,2.6-6,6.2
			C189.4,36,191.9,38.3,194.9,38.3z M195.5,35.9c-2,0-3.2-1.6-3.2-3.5c0-2,1.3-3.6,3.4-3.6c0.9,0,1.7,0.3,2.3,0.6v5.8
			C197.3,35.6,196.5,35.9,195.5,35.9z M212.7,38v-7.2h6.4v-2.4h-6.4v-4.5h7.3v-2.7h-10.3V38H212.7z M228.2,38.3c3.6,0,6.2-2.6,6.2-6
			s-2.6-6-6.2-6s-6.2,2.6-6.2,6S224.6,38.3,228.2,38.3z M228.2,35.8c-2,0-3.4-1.5-3.4-3.5s1.4-3.5,3.4-3.5s3.4,1.5,3.4,3.5
			S230.1,35.8,228.2,35.8z M239.7,38v-7.2c0.8-1.1,1.9-1.7,3.2-1.7c0.4,0,0.7,0,0.9,0.1v-2.6c-0.3-0.1-0.5-0.1-0.8-0.1
			c-1.3,0-2.5,0.6-3.3,1.7v-1.6h-2.8V38H239.7L239.7,38z M251.5,38.3c1.5,0,3.1-0.4,4.2-1.1v-2.6c-1.1,0.8-2.5,1.3-3.9,1.3
			c-1.9,0-3.4-1-3.8-2.9h8.2c0-0.3,0.1-0.8,0.1-1.1c0-3.7-2.5-5.6-5.3-5.6c-3.1,0-5.8,2.4-5.8,6C245.1,35.9,247.8,38.3,251.5,38.3
			L251.5,38.3z M253.7,31.1H248c0.3-1.7,1.6-2.5,2.9-2.5C252.2,28.6,253.4,29.4,253.7,31.1z M263,38.3c2.7,0,5-1.2,5-3.8
			c0-2.2-1.6-2.9-3.7-3.3c-1.7-0.3-3.1-0.3-3.1-1.4c0-0.8,0.8-1.1,2-1.1s2.8,0.4,4.2,1.2v-2.6c-1.2-0.6-2.9-0.9-4.2-0.9
			c-2.7,0-4.8,1.3-4.8,3.6c0,2.1,1.5,2.8,3.7,3.3c1.7,0.4,3.2,0.3,3.2,1.5c0,0.9-0.8,1.2-2.1,1.2s-3-0.4-4.4-1.3v2.6
			C259.9,38,261.6,38.3,263,38.3L263,38.3z M275.1,38.3c0.9,0,1.8-0.2,2.3-0.5v-2.4c-0.5,0.3-1.1,0.5-1.7,0.5
			c-1.3,0-1.5-1.1-1.5-2.3V29h3.2v-2.4h-3.2v-3.5l-2.8,0.5v3h-2V29h2v4.9c0,1.7,0.3,2.6,0.9,3.3C273,38,274.1,38.3,275.1,38.3
			L275.1,38.3z M283.9,38.3c2.7,0,5-1.2,5-3.8c0-2.2-1.6-2.9-3.7-3.3c-1.7-0.3-3.1-0.3-3.1-1.4c0-0.8,0.8-1.1,2-1.1s2.8,0.4,4.2,1.2
			v-2.6c-1.2-0.6-2.9-0.9-4.2-0.9c-2.7,0-4.8,1.3-4.8,3.6c0,2.1,1.5,2.8,3.7,3.3c1.7,0.4,3.2,0.3,3.2,1.5c0,0.9-0.8,1.2-2.1,1.2
			s-3-0.4-4.4-1.3v2.6C280.8,38,282.5,38.3,283.9,38.3L283.9,38.3z M307.3,38v-2.6h-6l2.5-3.1c1.9-2.3,2.9-4.2,2.9-6.3
			c0-3.2-2.5-5-5.6-5c-1.8,0-3.2,0.6-4.1,1.2V25c1.2-0.9,2.6-1.4,3.9-1.4c1.7,0,2.9,0.9,2.9,2.6c0,1.4-0.9,2.8-2.6,5l-5.3,6.7
			L307.3,38L307.3,38L307.3,38z M315.8,38.3c1.8,0,3.3-0.7,4.4-2.2s1.6-3.6,1.6-6.5s-0.5-5-1.6-6.5c-1-1.4-2.6-2.2-4.4-2.2
			s-3.3,0.7-4.4,2.2s-1.6,3.6-1.6,6.5s0.5,5,1.6,6.5S314,38.3,315.8,38.3z M315.8,35.6c-0.9,0-1.6-0.4-2-1c-0.8-1-1-2.9-1-5
			s0.2-3.9,1-5c0.5-0.6,1.1-1,2-1s1.6,0.4,2,1c0.8,1,1,2.9,1,5s-0.2,3.9-1,5C317.4,35.2,316.7,35.6,315.8,35.6z M329,38.3
			c3.3,0,5.9-2,5.9-4.9c0-1.8-1-3.4-2.9-4c1.6-0.5,2.6-2,2.6-3.7c0-2.7-2.4-4.6-5.6-4.6c-1.4,0-2.7,0.3-3.6,0.9v2.8
			c1-0.6,2.3-1,3.5-1c1.7,0,2.9,0.9,2.9,2.4c0,1.4-1,2.4-3,2.4h-1.6V31h1.6c2.2,0,3.3,1,3.3,2.4c0,1.6-1.3,2.5-3,2.5
			c-1.5,0-3.2-0.7-4.6-1.8v3C325.3,37.7,327.1,38.3,329,38.3L329,38.3z M343.4,38.3c1.8,0,3.3-0.7,4.4-2.2s1.6-3.6,1.6-6.5
			s-0.5-5-1.6-6.5c-1-1.4-2.6-2.2-4.4-2.2s-3.3,0.7-4.4,2.2s-1.6,3.6-1.6,6.5s0.5,5,1.6,6.5C340,37.6,341.6,38.3,343.4,38.3z
			 M343.4,35.6c-0.9,0-1.6-0.4-2-1c-0.8-1-1-2.9-1-5s0.2-3.9,1-5c0.5-0.6,1.1-1,2-1s1.6,0.4,2,1c0.8,1,1,2.9,1,5s-0.2,3.9-1,5
			C344.9,35.2,344.3,35.6,343.4,35.6z M57.4,27.5c0,0,1.7-5.2-1.1-11.8C60.4,22,61,30,57.9,36.8c-0.1,0.2-0.1,0.3-0.2,0.5l-0.2,0.4
			l0.1,0.1l-0.1-0.1c-0.9,1.7-2,3.3-3.4,4.8c0.4-2.2,0.5-4.4,0.3-6.5c-0.4-3.6-3.3-13.1-12.5-17.7c-1.9-0.9-4.4-1.3-6.8-1.7
			l-2.5-2.4C48.9,10.7,57.4,27.5,57.4,27.5z"/>
		<path d="M47.6,8.8c0,0-2.5-4.9-9.1-7.6c7.4,1.5,13.4,6.7,16,13.8c0.1,0.2,0.1,0.3,0.2,0.5s0.1,0.3,0.1,0.5h0.1h-0.1
			c0.6,1.9,0.9,3.8,1,5.7c-1.2-1.8-2.7-3.4-4.4-4.8c-2.8-2.3-11.6-7-21.4-3.7c-2,0.7-4.1,2.2-6,3.6l-3.4,0.1
			C29.7,2.9,47.6,8.8,47.6,8.8z"/>
		<path d="M27.5,2.5c0,0-5.2-1.7-11.8,1.1c6.2-4.2,14.2-4.8,21-1.6l0.5,0.2l0.4,0.2l0.1-0.1l-0.1,0.1c1.7,0.9,3.3,2,4.8,3.4
			c-2.2-0.4-4.4-0.5-6.5-0.3C32.3,5.9,22.7,8.8,18.2,18c-0.9,1.9-1.3,4.4-1.7,6.8l-2.4,2.5C10.7,11,27.5,2.5,27.5,2.5z"/>
		<path d="M8.8,12.3c0,0-4.9,2.5-7.6,9.1C2.7,14,7.9,8,15,5.4c0.2-0.1,0.3-0.1,0.5-0.2L16,5.1V5v0.1c1.9-0.6,3.8-0.9,5.7-1
			c-1.8,1.2-3.4,2.7-4.8,4.4c-2.3,2.7-6.9,11.6-3.7,21.3c0.7,2,2.2,4.1,3.6,6l0.1,3.4C2.9,30.2,8.8,12.3,8.8,12.3z"/>
		<path d="M2.5,32.4c0,0-1.7,5.2,1.1,11.8C-0.6,37.9-1.2,30,2,23.1c0.1-0.2,0.1-0.3,0.2-0.5s0.1-0.3,0.2-0.4l-0.1-0.1l0.1,0.1
			c0.9-1.7,2-3.3,3.4-4.8c-0.4,2.2-0.5,4.4-0.3,6.5C5.9,27.6,8.8,37.1,18,41.7c1.9,0.9,4.4,1.3,6.8,1.7l2.5,2.4
			C11,49.2,2.5,32.4,2.5,32.4z"/>
		<path d="M12.3,51.1c0,0,2.5,4.9,9.1,7.6C14,57.2,8,51.9,5.4,44.9c-0.1-0.2-0.1-0.3-0.2-0.5s-0.1-0.3-0.1-0.5L5,44h0.1
			c-0.6-1.9-0.9-3.8-1-5.7C5.3,40,6.8,41.6,8.5,43c2.8,2.3,11.6,7,21.4,3.7c2-0.7,4.1-2.2,6-3.6l3.4-0.1
			C30.2,57,12.3,51.1,12.3,51.1z"/>
		<path d="M32.4,57.4c0,0,5.2,1.7,11.8-1.1c-6.3,4.1-14.2,4.7-21,1.6l-0.5-0.2l-0.4-0.2l-0.1,0.1l0.1-0.1c-1.7-0.9-3.3-2-4.8-3.4
			c2.2,0.4,4.4,0.5,6.5,0.3c3.6-0.4,13.1-3.3,17.7-12.5c0.9-1.9,1.3-4.4,1.7-6.8l2.4-2.5C49.2,48.9,32.4,57.4,32.4,57.4z"/>
		<path d="M51.1,47.6c0,0,4.9-2.5,7.6-9.1c-1.5,7.4-6.7,13.4-13.8,16c-0.2,0.1-0.3,0.1-0.5,0.2l-0.5,0.1v0.1v-0.1
			c-1.9,0.6-3.8,0.9-5.7,1c1.8-1.2,3.4-2.7,4.8-4.4c2.3-2.8,7-11.6,3.7-21.4c-0.7-2-2.2-4.1-3.6-6L43,20.6
			C57,29.7,51.1,47.6,51.1,47.6z"/>
	</g>
</g>
</svg>
